<svg width="588" height="514" viewBox="0 0 588 514" fill="none" xmlns="http://www.w3.org/2000/svg">
<path fill-rule="evenodd" clip-rule="evenodd" d="M414.957 0.11002C414.267 0.19247 413.06 0.456747 412.275 0.697228C410.505 1.24019 407.623 2.61169 407.122 3.14879L406.748 3.55082L407.364 4.58899C408.77 6.96582 413.869 13.0858 416.756 15.8601C418.799 17.8241 420.746 19.2179 422.688 20.1061C426.225 21.7248 430.131 21.6742 434.498 19.9535C435.762 19.4559 437.588 18.4229 437.588 18.2062C437.588 18.1318 437.343 17.9735 437.043 17.854C436.065 17.4644 429.483 14.1645 428.452 13.5469C426.916 12.6274 426.189 12.0095 426.189 11.6244C426.189 11.2923 426.254 11.2829 427.991 11.3689C429.959 11.4664 432.778 12.0426 435.576 12.9193C438.957 13.9786 439.217 13.776 437.713 11.2516C436.089 8.52316 434.005 6.41179 430.966 4.40985C426.168 1.25092 419.78 -0.465123 414.957 0.11002ZM166.443 0.356197C163.18 0.953126 158.98 2.69448 155.962 4.70278C153.651 6.24052 150.759 9.39811 149.527 11.7292C149.031 12.6681 148.942 13.6733 149.356 13.6733C149.5 13.6733 150.519 13.3666 151.62 12.9919C154.313 12.0757 157.002 11.5091 159.253 11.3836C161.228 11.2734 161.503 11.3607 161.168 11.9884C160.844 12.5914 157.984 14.3111 154.01 16.2903C151.859 17.3616 150.099 18.3039 150.099 18.384C150.099 18.5897 152.98 20.0134 154.32 20.4698C156.062 21.0634 157.743 21.2717 159.948 21.1671C164.368 20.9576 167.117 19.4675 171.898 14.686C174.58 12.0043 176.092 10.2384 179.138 6.23583L181.161 3.57428L180.759 3.26526C179.845 2.56343 176.263 0.921788 174.909 0.583774C173.026 0.114208 168.44 -0.00913246 166.443 0.356197ZM130.858 5.4683C128.198 6.06875 125.574 7.67251 122.934 10.3126C118.764 14.4834 115.545 20.2714 114.496 25.4879C113.745 29.2253 113.829 31.4932 114.827 34.4393C114.874 34.5772 115.659 33.5588 116.704 32.0058C117.692 30.537 118.877 28.8465 119.337 28.2495C120.478 26.769 122.577 24.5906 123.146 24.2962C123.604 24.0596 123.613 24.0641 123.613 24.5305C123.613 25.5698 121.949 29.8172 119.772 34.3324C119.027 35.8788 118.417 37.1796 118.417 37.2232C118.417 37.2667 118.669 37.3024 118.977 37.3024C120.054 37.3024 122.204 36.6297 124.07 35.7094C125.642 34.9336 126.195 34.5484 127.441 33.3631C129.176 31.7129 130.384 30.0421 131.41 27.8732C133.057 24.3919 133.64 21.055 133.923 13.5057C134.022 10.8547 133.818 6.03339 133.581 5.41987C133.435 5.04096 132.693 5.05404 130.858 5.4683ZM453.89 5.22882C453.627 5.3463 453.61 9.05875 453.849 14.7626C454.148 21.831 454.445 23.8353 455.67 26.9961C457.506 31.7363 461.328 35.2408 466.357 36.7935C467.48 37.1404 468.682 37.2423 468.829 37.003C468.874 36.9306 468.42 35.8559 467.82 34.6149C465.854 30.549 464.33 26.6526 464.005 24.8594C463.911 24.3449 463.939 24.231 464.162 24.231C464.851 24.231 467.748 27.5312 470.266 31.1857C471.892 33.5451 472.24 33.9508 472.649 33.9508C473.125 33.9508 473.209 33.2965 473.208 29.5936C473.204 26.368 473.176 26.0456 472.728 24.3148C470.463 15.5434 463.953 7.73435 457.174 5.65649C456.004 5.29804 454.248 5.06945 453.89 5.22882ZM281.439 22.8273C266.711 23.7279 248.526 27.3688 232.406 32.6441C223.85 35.4443 218.771 37.554 208.489 42.5799C197.908 47.752 191.427 51.3869 184.296 56.1513C161.082 71.659 141.401 91.5844 126.522 114.642C119.595 125.376 112.908 138.317 108.168 150.163C102.888 163.358 99.2852 176.506 96.7979 191.664C95.1365 201.788 94.7954 205.435 94.6199 214.94C94.4713 222.987 94.649 237.656 94.9447 241.753C95.4302 248.481 96.583 256.381 98.3099 264.817C102.796 286.735 110.904 307.61 122.482 327.052C139.575 355.756 163.709 379.97 192.342 397.142C214.892 410.666 237.236 418.799 263.837 423.164C274.427 424.902 279.305 425.309 292.167 425.522C303.506 425.71 314.502 425.234 321.838 424.237C352.94 420.012 378.796 410.594 404.983 393.955C417.51 385.994 428.602 377.104 439.101 366.607C449.193 356.52 456.748 347.271 464.502 335.515C481.928 309.096 492.67 280.351 496.503 249.881C497.729 240.148 498.017 234.252 497.875 221.894C497.734 209.658 497.491 205.007 496.668 198.768C492.847 169.848 482.932 142.034 467.666 117.407C452.441 92.8486 431.383 71.3758 406.827 55.369C385.592 41.5267 364.079 32.4263 340.194 27.1794C331.143 25.1916 319.712 23.5102 312.115 23.0495C309.291 22.8784 283.643 22.6924 281.439 22.8273ZM287.222 32.8942C283.573 33.0679 276.121 33.8232 270.878 34.5511C243.044 38.414 217.789 47.4242 195.256 61.5305C187.671 66.2796 178.406 72.9712 173.149 77.4999C165.562 84.035 155.234 94.331 149.698 100.879C130.249 123.886 116.335 151.69 109.544 181.117C107.349 190.627 105.822 200.243 105.344 207.566C104.84 215.3 104.981 234.676 105.599 242.631C106.938 259.859 111.926 279.826 119.343 297.643C135.738 337.029 165.696 370.436 203.406 391.384C224.513 403.108 248.259 410.897 271.884 413.847C278.723 414.7 283.96 415.03 292.586 415.147C316.378 415.474 336.169 412.488 357.041 405.421C378.91 398.019 398.937 387.08 415.712 373.379C424.184 366.458 433.717 357.398 440.301 350.01C447.436 342.002 454.533 332.269 460.583 322.193C482.766 285.247 491.768 241.222 485.939 198.182C481.138 162.735 466.261 129.175 443.031 101.403C436.354 93.4201 428.713 85.6962 420.741 78.8722C403.327 63.9658 384.014 52.6404 362.572 44.761C347.202 39.1125 330.588 35.2507 315.049 33.7146C309.103 33.1269 292.571 32.6394 287.222 32.8942ZM94.4455 35.1897C92.2117 36.1676 91.1611 36.7628 89.8994 37.7661C84.7915 41.8273 80.7572 49.1297 79.1852 57.1609C78.7282 59.495 78.5584 63.8183 78.8452 65.8095C79.3168 69.0826 80.5448 72.4109 81.2808 72.4109C81.6368 72.4109 81.729 72.2184 82.8072 69.2269C84.0614 65.7464 87.08 60.0568 88.2185 59.0266C88.5571 58.7203 88.5645 58.723 88.6835 59.1951C88.9911 60.4156 88.2276 64.95 86.6305 71.3873C86.13 73.4052 85.7614 75.097 85.8115 75.1471C85.948 75.2835 88.9928 73.7043 90.3872 72.7741C93.6602 70.5903 97.1149 65.9441 98.0912 62.413C98.5191 60.8645 98.5081 48.8438 98.0756 45.6029C97.597 42.0175 96.1574 35.1042 95.8168 34.756C95.7541 34.6918 95.137 34.8871 94.4455 35.1897ZM137.588 35.0389C134.167 35.7826 130.543 38.3051 128.252 41.5364C127.282 42.9052 126.463 44.4263 126.463 44.8607C126.463 45.3078 127.418 45.2829 130.238 44.7622C134.581 43.9605 139.189 43.5755 139.447 43.9928C139.574 44.1983 138.399 45.1304 136.916 46.001C135.16 47.0318 132.719 48.0631 130.108 48.8773C128.761 49.2973 127.804 49.6826 127.804 49.8049C127.804 50.4565 130.88 52.1628 133.085 52.7346C134.817 53.184 138.265 53.3401 140.434 53.0671C147.408 52.1896 154.426 48.2085 157.554 43.3558C159.081 40.9882 159.429 39.9502 158.881 39.4026C157.805 38.3264 149.483 35.7092 145.049 35.0526C142.901 34.7346 139.021 34.7274 137.588 35.0389ZM442.33 34.9675C441.574 35.0407 440.102 35.3397 439.061 35.632C436.334 36.398 429.876 38.5511 429.062 38.9663C428.457 39.2747 428.368 39.3923 428.368 39.8808C428.368 41.8163 432.066 46.2939 435.987 49.1053C440.732 52.5092 448.683 54.0213 454.5 52.6257C455.759 52.3233 458.843 50.8732 459.301 50.3685C459.594 50.0447 459.593 50.0251 459.282 49.7878C459.105 49.6527 457.603 49.0071 455.943 48.353C450.98 46.3959 447.305 44.3127 447.981 43.837C448.43 43.5207 453.673 44.063 457.844 44.8569C459.257 45.1262 460.635 45.3464 460.905 45.3464H461.396L461.133 44.7179C460.989 44.3724 460.533 43.547 460.119 42.8839C457.688 38.9849 454.713 36.4521 451.417 35.4781C449.32 34.8584 445.612 34.6499 442.33 34.9675ZM491.508 34.9144C491.256 35.328 489.932 42.4851 489.3 46.8531C488.209 54.3806 488.367 58.6156 489.9 63.1262C490.43 64.6807 491.791 67.2745 492.723 68.5007C493.729 69.8275 495.731 71.7344 497.067 72.6417C498.342 73.5083 501.609 75.2454 501.732 75.1229C501.782 75.0725 501.329 72.9712 500.726 70.4532C499.083 63.6063 498.383 59.4687 498.773 58.9206C499.378 58.0692 503.17 64.9312 505.301 70.7351C505.986 72.6023 506.176 72.8411 506.643 72.4186C507.123 71.9849 507.943 69.7526 508.233 68.0962C508.823 64.7115 508.71 58.9718 507.984 55.3765C507.156 51.2733 504.575 45.7003 501.853 42.133C499.62 39.2098 497.243 37.1928 494.349 35.7692C492.487 34.8529 491.691 34.6132 491.508 34.9144ZM271.884 49.3199C270.264 49.4718 265.356 50.2914 261.574 51.0415C229.419 57.4183 199.537 72.6233 176.082 94.5412C173.469 96.983 166.148 104.181 166.217 104.241C166.455 104.449 175.14 110.82 177.078 112.207C182.746 116.267 188.908 120.256 189.509 120.256C189.672 120.256 191.234 118.504 193.204 116.117C198.622 109.548 204.429 103.285 211.977 95.8696C221.207 86.8027 226.058 82.5297 235.119 75.4859C245.834 67.1556 255.615 60.444 267.393 53.3406C273.238 49.8158 273.666 49.5383 273.548 49.3479C273.458 49.2023 273.186 49.1978 271.884 49.3199ZM316.65 49.3412C316.737 49.4185 318.393 50.4236 320.329 51.5751C333.461 59.3846 347.772 69.3018 359.723 78.8766C366.357 84.1923 370.208 87.7342 380.1 97.6229C389.642 107.162 392.362 110.12 399.014 118.188L402.767 122.74L404.713 121.304C411.184 116.529 417.447 111.606 421.72 107.936C424.43 105.608 424.931 105.034 424.754 104.461C424.688 104.254 423.232 102.662 421.515 100.924C400.714 79.8623 376.075 64.6586 348.817 56.066C339.751 53.2082 326.614 50.2554 319.407 49.4552C316.775 49.1631 316.432 49.1488 316.65 49.3412ZM299.459 103.915V155.28L303.776 155.279C315.049 155.274 326.771 153.884 339.218 151.078C345.347 149.696 354.955 146.928 356.789 146.018C357.847 145.492 357.877 145.459 357.843 144.87C357.718 142.627 349.123 123.929 343.452 113.552C331.505 91.6972 317.724 72.3783 301.57 54.8408L299.459 52.5499V103.915ZM287.633 56.3369C283.529 60.8204 280.076 64.7456 277.399 67.97C266.126 81.546 255.883 96.4726 247.327 111.793C241.004 123.113 232.822 140.699 233.3 141.942C233.504 142.477 238.185 144.258 244.727 146.289C259.982 151.024 271.743 153.288 290.197 155.041L291.245 155.14L291.222 120.562C291.208 101.545 291.151 78.4878 291.096 69.3246L290.994 52.664L287.633 56.3369ZM315.253 58.2083C315.394 58.3695 316.557 59.7836 317.837 61.3505C332.457 79.248 345.338 99.0498 355.282 118.919C358.583 125.514 360.398 129.528 364.562 139.444C366.011 142.894 365.801 142.731 367.792 141.952C370.397 140.933 383.736 134.212 389.142 131.194C391.92 129.644 395.832 127.234 395.841 127.069C395.849 126.881 392.62 122.801 390.051 119.753C382.222 110.47 369.74 97.8947 360.142 89.6228C348.315 79.4296 326.952 64.2147 316.712 58.6911C315.156 57.8524 314.854 57.7525 315.253 58.2083ZM273.558 58.877C252.842 71.3193 238.227 82.121 223.103 96.1646C213.501 105.081 200.972 118.519 197.676 123.435L196.838 124.687L197.274 125.035C198.776 126.232 219.769 136.987 223.415 138.429C225.476 139.243 225.153 139.561 227.322 134.593C233.555 120.311 240.29 107.519 248.549 94.2804C255.716 82.7901 262.627 73.22 271.361 62.6912C273.84 59.702 274.762 58.4746 274.629 58.3426C274.593 58.3049 274.11 58.5453 273.558 58.877ZM524.265 67.6613C522.942 69.0807 518.131 81.2588 516.726 86.7449C515.349 92.1247 515.347 97.0851 516.721 101.208C518.193 105.621 520.676 109.157 524.315 112.025C525.041 112.597 525.683 113.017 525.74 112.959C525.799 112.901 525.846 109.523 525.847 105.452C525.847 98.159 525.968 96.1661 526.462 95.2331C526.828 94.5444 527.462 95.6938 528.514 98.9495C529.361 101.574 530 104.264 530.719 108.243C531.054 110.103 531.384 111.727 531.453 111.85C531.622 112.159 532.569 111.037 533.766 109.111C535.476 106.36 536.177 104.348 536.774 100.481C537.139 98.1082 537.186 91.5896 536.856 88.9178C536.133 83.0603 534.576 78.5336 531.944 74.6349C530.843 73.0038 526.171 68.1678 525.138 67.5893C524.62 67.2988 524.6 67.3005 524.265 67.6613ZM61.925 67.9945C58.9435 69.6892 56.4832 72.6139 54.1216 77.2708C52.3738 80.7172 51.4445 83.5476 50.9547 86.9154C50.173 92.2896 50.6164 101.019 51.8778 105.09C52.5696 107.323 53.8299 109.445 55.7075 111.541C56.2492 112.146 56.3844 112.229 56.3896 111.96C56.4099 110.918 56.974 106.932 57.4021 104.803C58.1915 100.879 60.0046 95.815 60.7179 95.5413C61.4717 95.2521 61.6184 96.584 61.7367 104.791C61.8286 111.163 61.8739 112.065 62.1137 112.305C62.3625 112.553 62.4306 112.554 62.8946 112.314C63.5847 111.958 66.7751 108.534 67.9552 106.883C72.1517 101.014 72.9186 93.2473 70.1926 84.2255C68.796 79.6034 63.6251 67.4646 63.0547 67.4688C62.9403 67.4698 62.4321 67.7062 61.925 67.9945ZM106.012 67.7116C101.295 68.7171 97.1268 72.14 94.1963 77.4153L93.5574 78.5652L94.0434 78.4689C95.1377 78.2517 98.3505 77.8587 100.364 77.6958C102.804 77.4984 107.612 77.483 108.091 77.671C108.395 77.7898 108.391 77.815 108.008 78.1748C106.62 79.4789 101.479 81.5658 96.8324 82.7117L94.6095 83.2599L95.7428 84.1612C97.0929 85.2349 99.5021 86.4756 100.899 86.817C104.498 87.6961 110.772 87.5802 114.771 86.5606C120.5 85.0999 125.52 81.7538 128.345 77.5133C129.465 75.8313 130.392 73.9319 130.26 73.5879C130.124 73.2338 128.6 72.514 125.374 71.2801C121.555 69.8199 117.198 68.4067 115.148 67.9638C112.986 67.4966 107.705 67.3508 106.012 67.7116ZM473.89 67.6444C471.335 67.9107 468.935 68.6717 460.704 71.8254C458.731 72.5815 457.055 73.2582 456.979 73.3291C456.902 73.3998 457.18 74.1352 457.596 74.9631C460.567 80.8735 467.344 85.7564 474.299 86.9953C476.337 87.3584 483.222 87.5302 485.027 87.2629C487.18 86.9443 492.403 84.139 492.403 83.302C492.403 83.0445 492.167 82.9608 490.98 82.7989C489.144 82.5483 482.85 80.2193 480.582 78.951C478.109 77.5688 478.805 77.2683 483.854 77.5359C487.2 77.7132 492.054 78.1376 493.213 78.3539C493.644 78.4344 494.017 78.4774 494.046 78.4498C494.131 78.3636 492.547 75.814 491.751 74.7571C490.584 73.2078 488.201 70.9438 486.65 69.9128C484.89 68.741 483.601 68.1693 482.059 67.8741C480.496 67.5752 475.818 67.4436 473.89 67.6444ZM497.013 102.767C496.736 102.812 493.895 103.259 490.7 103.763C487.505 104.265 484.657 104.759 484.369 104.859C483.39 105.2 483.282 106.002 483.959 107.886C484.201 108.56 484.724 109.76 485.121 110.554C487.862 116.023 495.154 121.739 501.871 123.685C505.794 124.822 511.218 124.924 514.614 123.925C515.84 123.565 517.213 122.865 517.213 122.601C517.213 122.267 516.381 121.714 514.172 120.579C510.561 118.724 507.386 116.625 505.604 114.916C504.258 113.624 504.543 113.481 507.284 114.072C509.691 114.591 514.46 115.986 516.725 116.833C518.627 117.544 519.45 117.719 519.618 117.449C519.846 117.079 517.362 111.94 516.151 110.277C512.405 105.129 507.71 102.924 500.114 102.747C498.686 102.714 497.29 102.723 497.013 102.767ZM83.2011 103.077C79.3299 103.808 75.6428 105.573 73.279 107.827C71.7517 109.284 69.683 112.603 68.4702 115.545C68.0404 116.587 67.8166 117.574 68.0102 117.574C68.1684 117.574 71.0031 116.672 72.6727 116.09C74.6999 115.384 78.2228 114.454 80.7393 113.962C81.9198 113.731 82.2528 113.716 82.4569 113.885C82.6816 114.072 82.6771 114.139 82.4173 114.488C81.5196 115.692 76.669 118.953 72.863 120.911C71.3648 121.682 70.1389 122.377 70.1389 122.456C70.1389 122.737 72.7632 123.909 74.0783 124.215C75.7638 124.607 81.2427 124.659 83.2142 124.301C86.3079 123.739 90.6688 121.875 93.7837 119.781C98.3108 116.739 101.271 113.306 103.338 108.7C104.219 106.738 104.354 105.862 103.847 105.39C103.65 105.206 103.206 104.972 102.861 104.868C102.055 104.627 96.2943 103.603 93.6888 103.239C90.9149 102.85 84.8937 102.758 83.2011 103.077ZM159.735 111.769C157.374 114.245 152.714 120.471 148.677 126.54C144.45 132.896 141.37 138.191 137.86 145.142C128.041 164.588 121.983 185.804 120.014 207.65C119.78 210.249 119.255 218.255 119.255 219.227V219.632H135.563H151.871L152.167 215.987C152.752 208.798 153.428 203.455 154.482 197.679C157.705 180.029 164.341 161.714 173.487 145.225C175.899 140.875 178.06 137.324 181.477 132.089C183.034 129.703 184.38 127.617 184.469 127.454C184.605 127.198 184.083 126.788 180.732 124.51C173.345 119.491 167.315 115.183 163.134 111.935C162.144 111.165 161.238 110.536 161.123 110.536C161.005 110.535 160.382 111.09 159.735 111.769ZM428.42 112.84C421.555 118.396 416.625 122.294 412.398 125.51C409.749 127.524 407.581 129.242 407.581 129.327C407.581 129.413 408.172 130.366 408.894 131.447C410.639 134.057 414.562 140.35 416.355 143.418C422.722 154.31 427.345 164.456 431.226 176.061C435.819 189.797 438.337 201.959 439.777 217.37C439.879 218.476 439.976 219.391 439.991 219.401C440.006 219.413 447.102 219.476 455.759 219.542L471.501 219.662L471.387 216.84C470.767 201.573 468.66 188.549 464.491 174.217C461.584 164.228 458.283 155.932 453.053 145.477C448.1 135.575 444.648 129.818 438.588 121.345C433.931 114.834 431.087 111.206 430.639 111.206C430.53 111.206 429.531 111.942 428.42 112.84ZM29.234 114.847C28.3199 116.276 26.6187 119.843 26.1646 121.282C25.1468 124.508 24.7927 127.576 24.9392 131.903C25.1832 139.108 26.1816 143.153 29.2241 149.263C31.0823 152.995 33.2135 155.926 35.9748 158.548C37.6199 160.11 38.7504 160.881 40.2586 161.469L41.1387 161.811V161.468C41.1387 161.278 40.799 159.708 40.3838 157.977C39.1445 152.812 38.4566 148.111 38.4566 144.809C38.4566 143.781 38.5317 143.176 38.6852 142.966C38.8991 142.674 38.9533 142.707 39.5225 143.479C40.8453 145.272 43.6136 151.344 45.2738 156.093C46.3249 159.101 46.8249 160.308 47.0194 160.308C47.4371 160.308 49.2339 156.296 50.322 152.934C52.1777 147.201 51.5466 141.209 48.4213 134.887C47.1369 132.289 46.5098 131.403 43.8302 128.401C39.6843 123.756 30.8117 114.617 30.0544 114.212C29.7942 114.073 29.6651 114.172 29.234 114.847ZM556.79 115.326C554.568 116.996 546.132 125.569 542.869 129.473C538.401 134.818 536.681 139.013 536.38 145.309C536.152 150.098 537.077 153.963 539.712 159.209L540.632 161.042L541.687 157.868C543.259 153.142 546.153 146.426 547.763 143.759C548.33 142.823 548.789 142.629 548.957 143.256C549.14 143.94 549.066 146.784 548.808 148.997C548.447 152.083 548.146 153.755 547.309 157.291C546.907 158.996 546.528 160.675 546.471 161.02C546.372 161.612 546.391 161.649 546.798 161.649C547.752 161.649 550.503 159.849 552.363 158.009C561.09 149.373 565.132 132.61 561.281 121.01C560.46 118.532 558.408 114.558 557.952 114.558C557.875 114.558 557.352 114.904 556.79 115.326ZM191.311 132.112C190.517 132.977 189.372 134.582 187.275 137.768C175.49 155.681 166.965 176.074 162.861 196.171C161.525 202.713 160.349 211.707 160.205 216.49L160.11 219.632H183.934H207.758L207.842 219.255C207.991 218.586 208.256 215.639 208.603 210.75C209.236 201.862 210.306 194.089 212.213 184.515C214.23 174.388 216.495 165.577 219.75 155.197C221.455 149.759 222.013 147.754 222.013 147.071C222.013 146.558 222.679 146.914 214.582 143.106C208.301 140.152 203.825 137.924 199.299 135.497C196.651 134.077 191.913 131.651 191.789 131.651C191.759 131.651 191.544 131.859 191.311 132.112ZM396.337 136.195C389.12 140.544 382.599 144.023 375.378 147.38C369.611 150.061 369.026 150.37 369.026 150.744C369.026 151.137 369.794 153.809 371.366 158.883C373.686 166.369 375.929 174.958 377.249 181.402C379.562 192.698 381.746 208.88 381.837 215.399C381.872 218.005 381.89 218.141 382.269 218.544C383.236 219.573 384.594 219.627 409.828 219.629L431.771 219.632L431.658 217.378C431.355 211.342 429.526 199.928 427.588 191.981C423.154 173.798 414.661 154.699 403.48 137.768C401.434 134.672 400.791 133.83 400.471 133.83C400.357 133.83 398.496 134.894 396.337 136.195ZM76.8442 142.89C71.0148 143.081 68.7773 143.405 65.739 144.496C61.9128 145.87 58.5496 148.419 56.4123 151.565C54.7641 153.992 52.5448 159.458 52.5398 161.104C52.5378 161.744 52.578 161.816 52.9401 161.816C53.1614 161.816 54.6513 161.142 56.2508 160.32C61.9837 157.369 67.6245 155.29 67.6245 156.13C67.6245 156.537 66.5422 157.824 64.6664 159.644C62.5159 161.731 60.4654 163.385 57.818 165.168C55.8297 166.508 55.3667 166.956 55.7293 167.189C56.5623 167.727 60.0266 168.349 62.1964 168.35C62.9449 168.352 64.2272 168.236 65.0461 168.094C68.4031 167.511 73.6961 165.334 76.928 163.205C81.2782 160.341 85.2829 155.994 87.4615 151.772C88.8899 149.004 89.4338 147.123 89.6819 144.094L89.7951 142.712L85.2055 142.739C82.6813 142.753 78.9187 142.822 76.8442 142.89ZM500.198 142.866C499.368 142.936 498.434 143.052 498.123 143.122L497.556 143.251L497.658 144.23C497.796 145.554 499.249 149.902 500.252 151.99C501.581 154.764 504.005 157.677 507.463 160.658C512.363 164.881 517.125 167.207 522.731 168.117C524.593 168.419 527.577 168.412 528.89 168.104C530.107 167.816 532.132 167.031 532.132 166.845C532.132 166.775 531.208 166.118 530.078 165.387C528.948 164.655 527.267 163.447 526.34 162.701C523.351 160.293 520.062 156.839 520.062 156.107C520.062 155.725 521.677 156.08 523.878 156.946C525.058 157.412 528.018 158.773 530.454 159.971C532.889 161.171 534.953 162.151 535.039 162.151C535.307 162.151 535.018 160.744 534.293 158.511C532.879 154.166 531.58 151.75 529.455 149.514C525.772 145.643 521.135 143.598 514.782 143.043C512.217 142.819 502.181 142.697 500.198 142.866ZM229.922 150.134C229.297 150.886 224.687 165.669 222.96 172.458C220.644 181.562 218.35 194.171 217.246 203.879C217.105 205.124 216.835 208.066 216.649 210.415C216.27 215.159 216.029 217.847 215.886 218.92L215.791 219.632H253.602H291.414L291.371 191.525L291.329 163.417L290.575 163.286C290.161 163.214 287.136 162.855 283.856 162.488C272.475 161.213 265.152 159.939 255.456 157.544C249.185 155.996 245.473 154.902 237.519 152.257C233.647 150.97 230.393 149.916 230.289 149.917C230.185 149.917 230.019 150.015 229.922 150.134ZM357.292 154.456C342.056 159.388 328.054 162.081 312.953 162.983C310.369 163.138 301.357 163.492 300.011 163.492H299.459V191.562V219.632H336.841H374.223L374.221 219.171C374.218 217.616 373.13 206.527 372.453 201.114C370.642 186.67 367.387 172.121 362.795 157.962C361.649 154.426 361.199 153.435 360.747 153.445C360.552 153.449 358.998 153.905 357.292 154.456ZM9.16058 173.17C8.3702 174.705 8.06544 175.618 7.66447 177.653C7.23299 179.841 7.24019 186.83 7.67654 189.216C8.89556 195.886 12.5429 203.656 17.1149 209.326C18.8331 211.456 21.9073 214.429 23.5853 215.58C25.8952 217.167 29.4765 218.627 31.0565 218.627C31.6043 218.627 31.6217 218.606 31.521 218.104C31.4633 217.815 30.8836 216.44 30.2327 215.045C28.0144 210.293 26.4778 206.118 25.5385 202.292C25.0323 200.229 24.9309 199.278 25.1994 199.112C25.8081 198.736 31.1421 205.637 34.8236 211.563C36.79 214.727 37.6804 215.833 37.9495 215.443C38.2252 215.042 38.611 213.644 38.9206 211.923C39.1536 210.628 39.205 209.329 39.1961 204.969C39.1832 198.579 39.1234 198.254 37.2853 194.579C35.6419 191.292 34.3226 189.519 31.1676 186.357C28.2701 183.453 26.1172 181.742 22.2801 179.293C18.3362 176.776 10.1541 171.871 9.89984 171.871C9.86078 171.871 9.5282 172.456 9.16058 173.17ZM575.386 173.229C574.144 173.882 571.617 175.323 569.77 176.433C559.644 182.509 553.439 188.117 550.606 193.754C548.369 198.207 547.51 203.164 548.131 208.069C548.612 211.875 549.431 215.778 549.75 215.778C549.99 215.778 551.143 214.129 552.916 211.253C554.71 208.34 556.601 205.58 558.425 203.209C559.56 201.734 562.093 199.019 562.336 199.019C562.549 199.019 562.498 200.218 562.232 201.481C561.385 205.493 558.804 212.312 556.608 216.339C555.961 217.524 555.433 218.533 555.433 218.581C555.433 218.628 556.055 218.633 556.816 218.59C559.122 218.457 561.776 217.197 565.15 214.635C566.967 213.254 569.931 210.214 571.19 208.439C574.325 204.022 578.063 196.583 579.221 192.454C580.344 188.453 580.537 180.981 579.634 176.563C579.334 175.1 578.507 173.017 577.998 172.441L577.644 172.04L575.386 173.229ZM507.364 189.828C507.044 190.148 507.106 192.725 507.482 194.657C508.073 197.714 509.481 201.327 511.156 204.092C513.52 207.992 518.076 212.572 522.493 215.489C525.051 217.177 529.654 219.26 532.683 220.098C534.202 220.519 540.802 220.522 541.729 220.101C542.074 219.945 542.357 219.754 542.357 219.677C542.357 219.463 540.413 217.628 538.921 216.433C536.438 214.447 532.687 210.485 530.937 208C529.58 206.08 529.854 205.83 532.234 206.815C535.253 208.064 538.408 209.802 542.495 212.466C545.418 214.372 545.98 214.643 546.218 214.268C546.546 213.747 545.961 210.512 545.008 207.575C544.218 205.146 542.711 202.085 541.531 200.519C539.003 197.161 535.107 194.532 530.263 192.911C526.452 191.636 522.773 191.011 515.452 190.396C510.408 189.97 509.25 189.861 508.16 189.704C507.807 189.653 507.49 189.704 507.364 189.828ZM76.1737 189.987C64.6909 190.738 58.8555 191.817 54.1026 194.067C51.9068 195.108 50.3643 196.169 48.614 197.843C45.3001 201.012 43.2976 204.583 41.9768 209.679C41.3787 211.985 41.0993 214.888 41.4895 214.737C41.6193 214.688 42.9323 213.857 44.4075 212.894C47.8387 210.65 49.7063 209.56 52.6214 208.104C55.1312 206.849 57.1336 206.071 57.3352 206.274C57.5389 206.477 56.9343 207.551 55.7622 209.069C54.4112 210.819 49.0026 216.255 47.5087 217.366C46.002 218.487 45.3295 219.143 45.3295 219.491C45.3295 220.138 45.8904 220.219 50.3584 220.21C54.4542 220.2 54.7026 220.182 56.2942 219.751C58.311 219.206 60.6543 218.174 63.3086 216.661C71.4061 212.042 78.1025 203.573 79.7917 195.812C80.115 194.325 80.1712 190.716 79.8797 190.171C79.6576 189.757 79.6866 189.757 76.1737 189.987ZM119.424 230.315C119.426 236.072 121.498 253.965 122.618 257.905L122.803 258.553L123.545 258.451C123.953 258.396 125.286 258.002 126.507 257.576C132.575 255.46 141.829 252.384 146.328 250.99C149.093 250.132 151.658 249.266 152.027 249.063L152.698 248.694L152.648 246.941C152.589 244.808 151.831 232.328 151.605 229.771C151.516 228.757 151.442 227.87 151.442 227.802C151.441 227.733 144.236 227.676 135.431 227.676H119.423L119.424 230.315ZM159.654 230.077C159.654 233.349 160.401 244.181 160.769 246.243C160.868 246.794 160.87 246.794 161.644 246.687C162.606 246.553 168.396 245.502 172.646 244.691C182.021 242.901 192.016 241.465 200.64 240.669C204.144 240.344 207.247 239.923 207.639 239.717C207.91 239.574 207.932 239.109 207.932 233.619V227.676H183.793H159.654V230.077ZM215.978 233.443V239.209L217.11 239.383C218.562 239.606 221.46 239.71 231.987 239.915C236.689 240.005 242.121 240.156 244.057 240.248C256.279 240.828 267.492 242.242 282.612 245.111C290.938 246.69 290.985 246.695 291.138 245.932C291.195 245.649 291.292 241.426 291.354 236.548L291.468 227.676H253.722H215.978V233.443ZM299.494 237.689C299.536 244.793 299.61 247.831 299.747 248.146C299.933 248.574 300.264 248.671 308.208 250.621C320.894 253.737 345.556 259.726 350.025 260.779C364.254 264.125 371.133 265.362 371.658 264.67C371.745 264.554 372.136 261.519 372.523 257.925C373.587 248.074 374.074 241.042 374.327 231.824L374.441 227.676H336.938H299.436L299.494 237.689ZM382.437 230.148C382.435 237.133 381.588 249.455 380.494 258.427C380.257 260.363 380.023 262.937 379.971 264.149C379.859 266.763 379.738 266.609 382.117 266.874C388.585 267.596 404.438 267.46 411.437 266.626C416.287 266.046 424.698 263.86 428.136 262.283C429.307 261.747 429.333 261.722 429.521 260.921C430.577 256.415 431.878 242.081 432.156 231.907L432.274 227.676H407.355H382.437V230.148ZM440.213 232.913C440.06 240.082 439.614 246.266 438.773 252.897C438.184 257.529 438.179 257.673 438.583 257.673C439.353 257.673 445.166 254.365 449.558 251.429C457.636 246.028 470.733 234.709 475.154 229.312L476.493 227.676H458.409H440.323L440.213 232.913ZM1.0923 228.72C0.194803 231.086 -0.00199638 232.71 1.52006e-05 237.731C0.00286494 244.444 0.618911 247.012 3.76133 253.4C7.41922 260.837 12.8993 267.269 18.8859 271.155C22.0741 273.223 24.8367 274.209 27.9377 274.381C29.4854 274.467 29.7397 274.445 29.7397 274.225C29.7397 274.085 28.8291 272.585 27.7162 270.891C24.1998 265.54 23.0975 263.358 21.4428 258.469C20.4554 255.553 20.3513 254.992 20.7979 254.992C21.8949 254.992 28.1056 261.554 33.4613 268.372L35.5904 271.082L35.7689 270.453C36.4103 268.191 36.4168 258.88 35.779 255.914C34.4951 249.943 30.4954 244.314 24.4761 240.008C20.1408 236.906 13.3991 233.51 1.78429 228.573C1.26647 228.353 1.22876 228.36 1.0923 228.72ZM583.469 229.68C576.695 232.457 568.756 236.233 565.683 238.14C560.063 241.629 555.33 246.789 553.119 251.836C551.483 255.577 550.99 258.508 551.128 263.706C551.243 268.144 551.518 270.242 551.979 270.242C552.273 270.242 554.06 268.347 555.85 266.136C560.138 260.842 566.399 254.538 566.999 254.908C567.415 255.165 565.179 261.328 563.326 265.032C562.311 267.063 561.325 268.707 559.496 271.412C558.718 272.561 557.937 273.786 557.759 274.135L557.437 274.767H557.997C560.068 274.767 563.781 273.713 566.36 272.394C575.713 267.608 583.927 256.668 586.962 244.95C588.275 239.891 587.767 229.736 586.159 228.876C585.915 228.745 585.32 228.923 583.469 229.68ZM511.309 230.986C510.692 231.691 510.591 232.511 510.591 236.809C510.591 241.59 510.757 243.006 511.607 245.448C512.977 249.381 515.649 254.87 517.271 257.085C518.683 259.012 525.44 265.685 527.643 267.328C531.736 270.379 534.814 271.591 539.144 271.854C541.11 271.973 541.355 271.889 541.001 271.209C540.892 270.999 539.955 269.659 538.918 268.231C535.947 264.144 533.352 259.783 532.048 256.69C531.336 255.002 531.222 254.211 531.701 254.293C533.084 254.534 539.147 259.86 543.898 265.007L546.751 268.099L546.67 262.759C546.568 256.008 546.293 254.561 544.354 250.551C543.103 247.969 541.97 246.377 539.935 244.349C535.233 239.668 528.943 236.42 516.681 232.345C513.945 231.437 511.674 230.693 511.635 230.693C511.597 230.693 511.449 230.825 511.309 230.986ZM70.7257 232.345C61.0629 235.633 56.6811 237.525 52.8493 240.065C49.8709 242.041 46.4075 245.368 44.7102 247.885C43.0507 250.347 41.7069 253.289 41.3755 255.188C41.1789 256.313 40.7127 267.861 40.858 268.006C40.885 268.033 42.4935 266.376 44.4325 264.323C47.9467 260.604 51.5667 257.217 53.9042 255.463C55.2425 254.457 56.2017 253.908 56.3517 254.057C56.5477 254.253 55.9801 255.662 54.6253 258.344C52.7217 262.113 50.4758 265.831 48.6244 268.281C46.2384 271.44 46.1535 271.626 46.9635 271.933C47.8793 272.281 51.4341 271.576 54.2612 270.483C56.2738 269.707 58.8486 268.365 60.1618 267.406C66.0233 263.135 72.4524 254.811 74.9922 248.205C76.9614 243.084 77.8026 234.101 76.5524 231.547C76.09 230.602 75.6902 230.656 70.7257 232.345ZM479.495 247.385C479.081 247.732 477.42 249.304 475.808 250.879C470.809 255.759 467.61 258.511 462.531 262.295C435.573 282.383 396.96 295.249 367.677 293.9C357.709 293.44 353.063 292.752 326.775 287.835C309.686 284.639 299.846 283.151 289.15 282.15C272.013 280.545 255.902 280.222 243.302 281.227C226.942 282.534 212.165 285.784 197.475 291.305C179.646 298.007 162.328 308.278 148.667 320.254C145.488 323.04 142.053 326.416 142.053 326.752C142.053 327.243 147.35 334.473 151.42 339.537C159.61 349.728 166.822 357.252 175.836 365.015C178.759 367.532 180.042 368.504 180.26 368.37C180.353 368.311 181.554 366.778 182.928 364.961C186.42 360.344 188.133 358.395 192.755 353.777C198.459 348.076 203.168 343.978 209.327 339.353C226.17 326.702 248.67 316.297 268.699 311.893C282.537 308.851 289.886 308.344 325.693 307.948C356.092 307.613 365.705 307.187 377.156 305.676C408.576 301.528 437.479 290.846 460.972 274.696C465.862 271.336 470.661 267.525 475.561 263.115L478.418 260.544L478.884 257.559C479.822 251.565 480.35 247.721 480.3 247.245L480.25 246.757L479.495 247.385ZM75.8352 273.109C72.2548 275.796 66.9725 280.426 63.3438 284.057C56.9452 290.464 53.7432 295.532 52.537 301.166C52.0114 303.621 51.8961 307.936 52.2833 310.658C52.753 313.959 53.6235 316.719 55.2839 320.17L55.8827 321.413L56.2822 320.505C56.5019 320.004 57.3126 318.125 58.0839 316.327C60.126 311.568 62.5275 306.842 64.2051 304.283C65.5497 302.23 65.6868 302.074 65.8266 302.44C66.1208 303.205 65.8513 308.196 65.3834 310.651C64.987 312.729 64.6381 314.026 62.8617 320.021C62.1297 322.491 61.9942 323.198 62.2529 323.198C62.736 323.198 66.7536 321.023 68.0042 320.084C74.0253 315.566 79.1617 306.346 81.2591 296.289C81.9694 292.886 82.1221 291.305 82.1167 287.419C82.1115 283.555 81.9089 281.81 81.1926 279.459C80.2103 276.235 78.2223 271.918 77.7196 271.918C77.5575 271.918 76.7094 272.454 75.8352 273.109ZM509.087 272.915C507.607 275.352 506.373 278.608 505.879 281.386C505.503 283.491 505.44 291.245 505.777 293.62C506.263 297.045 507.039 299.993 508.36 303.423C509.357 306.019 512.003 311.318 513.211 313.143C514.413 314.96 517.838 318.569 520.062 320.366C521.486 321.515 523.593 322.687 524.818 323.01L525.467 323.183L525.361 322.526C525.304 322.166 524.982 320.983 524.649 319.895C523.589 316.461 522.92 313.83 522.248 310.462C521.462 306.515 521.194 304.422 521.266 302.76L521.32 301.508L522.193 302.607C524.359 305.332 527.869 312.094 530.467 318.548C531.051 319.999 531.577 321.187 531.637 321.187C531.696 321.187 532.239 320.15 532.844 318.883C534.757 314.873 535.287 312.62 535.431 307.864C535.598 302.316 535.109 299.837 532.98 295.463C530.806 290.995 527.611 286.97 522.493 282.253C519.318 279.325 510.365 271.918 510.003 271.918C509.805 271.918 509.476 272.275 509.087 272.915ZM5.26549 300.527C5.26549 303.829 6.0941 307.068 7.87015 310.713C9.73858 314.547 12.356 318.058 15.9314 321.526C21.9671 327.379 28.0247 330.838 34.7026 332.244C38.8059 333.109 45.2498 332.76 46.6866 331.597L47.0712 331.287L46.5775 330.823C46.3059 330.568 45.4803 329.968 44.7428 329.489C42.4802 328.019 39.9947 325.938 37.4508 323.379C35.1564 321.073 31.9189 317.167 31.9189 316.706C31.9189 316.054 34.617 317.011 39.5462 319.412C43.6422 321.408 46.2449 322.86 49.2354 324.812C50.4157 325.584 51.4048 326.214 51.4334 326.214C51.5104 326.214 51.0702 323.471 50.7611 322.025C49.7219 317.162 46.9225 311.464 43.9914 308.246C42.1678 306.245 38.4768 303.727 35.4357 302.408C30.1561 300.119 23.7717 299.244 9.07911 298.798L5.26549 298.682V300.527ZM573.202 298.989C564.615 299.406 560.814 299.819 557.241 300.725C548.694 302.89 543.045 307.248 539.425 314.464C538.301 316.706 537.602 318.76 536.911 321.849C536.318 324.505 536.22 325.708 536.589 325.829C536.691 325.863 537.483 325.422 538.349 324.849C543.879 321.2 550.259 317.931 554.646 316.498C555.275 316.294 555.83 316.166 555.88 316.215C555.929 316.265 555.58 316.87 555.104 317.559C551.946 322.125 546.773 326.974 541.31 330.488C540.255 331.165 540.141 331.435 540.741 331.829C541.59 332.385 543.635 332.635 547.47 332.65C551.632 332.668 552.813 332.496 555.6 331.465C559.183 330.139 565.133 326.938 568.178 324.701C570.01 323.354 574.264 319.064 575.902 316.914C578.395 313.641 579.627 311.425 580.716 308.256C581.91 304.786 582.7 300.657 582.426 299.319L582.324 298.815L579.984 298.795C578.697 298.783 575.644 298.87 573.202 298.989ZM463.151 302.644C462.506 303.04 460.997 304.005 459.799 304.787C452.577 309.502 444.476 313.785 435.987 317.376C421.844 323.361 405.679 327.869 387.549 330.887C380.093 332.128 373.058 332.997 341.283 336.605C318.411 339.2 308.618 340.699 297.867 343.243C284.206 346.477 273.366 350.358 262.077 356.059C248.221 363.058 237.407 371.334 229.035 381.349C225.284 385.837 220.375 392.671 220.56 393.15C220.922 394.092 233.687 398.98 242.967 401.731C252.879 404.668 264.421 407.12 274.056 408.333C277.382 408.752 276.874 409.004 278.287 406.235C282.947 397.117 290.01 389.266 300.716 381.299C316.497 369.555 337.555 360.083 361.694 353.869C363.836 353.318 368.872 352.081 372.882 351.122C397.706 345.181 416.895 338.47 441.696 327.049C452.941 321.871 454.765 320.77 456.408 318.169C457.878 315.843 463.99 304.03 464.539 302.45C464.792 301.727 464.6 301.754 463.151 302.644ZM92.2065 312.681C91.595 313.488 85.3752 325.036 83.8802 328.142C80.0735 336.047 78.6826 341.29 78.6915 347.7C78.6954 350.522 79.0145 353.153 79.6098 355.272C80.1563 357.216 82.0686 361.072 83.4003 362.915C84.5167 364.46 88.789 369.632 88.877 369.543C88.9066 369.514 89.1152 367.2 89.3405 364.4C89.7968 358.729 89.9559 357.189 90.4373 353.782C90.8151 351.109 91.6749 347.347 92.0134 346.886C92.2236 346.599 92.2668 346.636 92.5779 347.36C94.0095 350.693 94.7914 355.037 95.4672 363.418C95.6716 365.952 95.9034 368.098 95.9822 368.187C96.1921 368.423 98.5798 365.921 99.6207 364.375C102.114 360.671 104.259 355.003 104.835 350.598C105.139 348.278 105.245 340.469 105.019 337.107C104.658 331.743 104.225 329.558 102.8 325.913C100.995 321.298 98.9684 318.144 95.7157 314.884C94.4179 313.585 93.1903 312.434 92.988 312.329C92.6638 312.159 92.5711 312.201 92.2065 312.681ZM494.136 312.662C492.046 314.42 489.604 317.096 488.266 319.092C486.038 322.414 484.141 326.838 483.195 330.907C482.1 335.616 481.904 344.992 482.773 351.015C483.381 355.23 485.418 360.659 487.699 364.142C488.429 365.256 491.523 368.712 491.664 368.569C491.691 368.544 491.831 366.525 491.977 364.085C492.299 358.709 492.49 356.788 492.909 354.704C493.328 352.629 494.488 348.666 495.015 347.508C495.379 346.712 495.461 346.628 495.674 346.841C496.572 347.739 497.585 355.476 497.952 364.256C498.062 366.883 498.203 369.131 498.267 369.251C498.376 369.466 501.445 366.33 503.073 364.339C504.048 363.148 505.493 360.879 506.275 359.312C510.058 351.737 509.823 342.155 505.626 332.633C502.748 326.107 495.954 313.096 495.018 312.32C494.827 312.161 494.651 312.23 494.136 312.662ZM118.863 358.667C118.813 358.838 117.98 361.578 117.011 364.758C114.82 371.946 113.861 375.343 113.133 378.482C111.3 386.388 110.937 393.408 112.059 399.222C113.006 404.125 115.327 408.747 118.598 412.241C121.528 415.372 127.01 419.526 127.672 419.117C127.884 418.986 127.774 417.921 127.126 413.845C126.481 409.79 126.019 405.521 125.784 401.459C125.595 398.179 125.647 396.686 126.017 394.863L126.216 393.883L128.169 397.879C130.974 403.622 131.586 405.288 133.268 411.764C134.296 415.72 134.644 416.709 135.009 416.709C135.326 416.709 137.197 413.605 137.94 411.846C139.541 408.053 140.2 404.459 140.33 398.818C140.459 393.167 140.038 389.366 138.702 384.114C135.723 372.399 129.25 363.094 121.397 359.238C119.659 358.385 118.989 358.233 118.863 358.667ZM466.167 359.292C463.441 360.612 460.506 362.982 457.772 366.067C455.851 368.236 454.626 370.121 452.852 373.64C448.557 382.155 447.451 387.303 447.411 398.945C447.392 404.769 447.518 405.816 448.655 409.22C449.521 411.809 450.752 414.277 452.047 416.02L453.093 417.425L453.305 416.104C454.108 411.078 456.773 402.909 459.314 397.677C460.228 395.793 461.24 394.389 461.5 394.645C461.579 394.722 461.636 396.985 461.629 399.673C461.614 405.054 461.363 408.325 460.558 413.609C459.839 418.34 459.782 419.055 460.121 419.055C461.748 419.055 468.675 413.066 471.263 409.419C473.189 406.706 474.82 402.848 475.479 399.453C476.466 394.367 476.297 387.303 475.041 381.182C473.803 375.142 469.057 359.448 468.214 358.603C468.053 358.442 467.62 358.588 466.167 359.292ZM48.0116 360.257C46.6251 360.42 29.9338 363.503 29.8195 363.617C29.7801 363.656 29.824 364.175 29.9171 364.769C30.5432 368.767 34.1825 375.289 38.0355 379.318C42.0139 383.479 48.5371 387.65 54.4419 389.812C62.8331 392.885 71.6049 393.231 77.5147 390.725C79.236 389.995 81.035 388.926 81.035 388.634C81.035 388.359 79.8106 387.711 77.2112 386.606C73.2073 384.907 67.9192 381.751 64.4016 378.964C62.7883 377.687 61.5393 376.372 61.6972 376.116C61.8242 375.911 63.6816 376.069 66.2697 376.506C69.4838 377.047 73.3385 378.098 78.5405 379.848C81.2714 380.766 83.6688 381.517 83.8681 381.517C84.7351 381.517 84.5526 380.877 82.4379 376.503C80.3008 372.083 79.1486 370.389 76.4375 367.679C71.8996 363.145 66.993 360.778 61.003 360.234C58.7926 360.033 49.7833 360.049 48.0116 360.257ZM525.51 360.249C521.819 360.695 517.705 362.344 514.437 364.688C511.718 366.637 509.788 368.64 507.909 371.462C506.129 374.136 503.569 379.328 503.22 380.972C503.111 381.485 503.132 381.517 503.579 381.517C503.841 381.515 504.922 381.207 505.981 380.83C511.776 378.768 516.45 377.424 520.398 376.68C522.312 376.318 526.064 375.898 526.194 376.028C526.3 376.134 523.383 378.653 521.655 379.95C517.526 383.048 512.45 385.938 508.469 387.457C507.579 387.796 506.727 388.212 506.575 388.381C506.313 388.669 506.35 388.718 507.272 389.299C510.957 391.625 514.636 392.5 520.146 392.359C526.235 392.203 531.252 390.903 537.412 387.887C541.861 385.708 545.251 383.3 548.687 379.878C552.875 375.707 555.273 372.186 556.65 368.194C557.354 366.151 557.846 364.169 557.727 363.859C557.679 363.731 557.426 363.59 557.164 363.545C556.903 363.5 554.427 363.006 551.661 362.444C543.122 360.715 539.021 360.239 531.88 360.15C529.114 360.116 526.248 360.16 525.51 360.249ZM156.64 404.46C156.644 417.986 156.913 422.972 157.904 427.9C159.08 433.754 162.157 440.256 165.664 444.3C168.787 447.899 173.382 450.886 178.355 452.547C180.434 453.242 183.756 454.004 183.934 453.827C184.11 453.651 183.456 452.071 181.612 448.214C177.931 440.519 174.211 430.075 174.905 429.382C175.972 428.316 186.157 440.911 188.991 446.8C190.202 449.319 190.52 449.419 191.156 447.489C192.247 444.176 192.552 437.891 191.841 433.372C190.78 426.645 187.748 418.72 183.812 412.39C179.748 405.858 174.23 400.551 168.036 397.219C164.985 395.577 162.346 394.727 158.898 394.27L156.637 393.971L156.64 404.46ZM427.962 394.271C425.753 394.593 422.254 395.783 419.778 397.053C416.588 398.689 414.134 400.586 410.512 404.216C406.086 408.648 403.657 412.03 400.813 417.714C395.624 428.081 393.958 437.977 396.032 446.098C396.421 447.626 396.972 448.885 397.252 448.885C397.495 448.885 398.249 447.737 399.287 445.785C402.128 440.449 405.3 436.018 409.144 432.013C411.487 429.573 412.61 428.649 412.808 429.001C413.42 430.095 409.303 441.399 404.924 450.644C404.269 452.027 403.733 453.291 403.729 453.451C403.721 454.045 405.396 453.748 409.219 452.483C413.784 450.971 416.729 449.22 420.023 446.061C426.572 439.775 429.548 432.505 430.631 420.144C430.924 416.801 431.207 406.538 431.214 398.987L431.218 394.085L430.086 394.106C429.464 394.117 428.509 394.191 427.962 394.271ZM94.2779 410.52C90.1518 410.75 86.2574 411.914 75.6708 416.084C67.4766 419.31 63.266 421.152 63.266 421.505C63.266 422.392 65.2478 426.224 66.9365 428.606C68.6385 431.005 72.1328 434.277 75.3355 436.469C80.2713 439.847 87.6682 442.728 93.9426 443.717C95.8969 444.025 106.149 444.025 108.359 443.717C112.283 443.17 115.97 441.779 119.423 439.542C120.711 438.708 123.416 436.231 123.236 436.05C123.195 436.009 122.082 435.788 120.763 435.555C116.458 434.801 112.917 433.769 108.024 431.84C103.596 430.097 100.145 428.205 100.145 427.523C100.145 427.402 100.277 427.252 100.438 427.19C101.181 426.903 105.064 426.739 108.862 426.836C114.188 426.97 116.706 427.164 121.041 427.774C122.992 428.048 124.708 428.272 124.855 428.272C125.293 428.272 125.165 427.753 124.394 426.4C122.894 423.768 120.631 420.912 117.84 418.128C113.532 413.833 109.866 411.829 104.666 410.926C103.359 410.699 97.8417 410.307 96.8762 410.371C96.6918 410.383 95.5226 410.45 94.2779 410.52ZM484.105 410.587C480.441 411.172 476.471 412.769 473.129 415.003C471.305 416.223 468.281 419.144 466.702 421.212C464.712 423.818 462.747 426.856 462.488 427.728C462.38 428.083 462.422 428.105 463.197 428.105C463.649 428.105 465.446 427.919 467.19 427.691C471.33 427.151 474.066 426.958 479.395 426.834C483.403 426.74 487.062 426.9 487.342 427.18C488.016 427.853 481.582 431.401 476.897 432.939C474.088 433.861 469.922 434.95 467.258 435.461C465.156 435.864 464.409 436.108 464.409 436.393C464.409 437.06 468.497 439.969 471.365 441.345C475.578 443.365 479.294 444.025 486.452 444.025C492.81 444.025 495.759 443.583 501.12 441.821C510.323 438.8 517.363 433.652 521.96 426.585C523.063 424.889 524.421 422.164 524.421 421.648C524.421 421.225 523.465 420.748 518.44 418.656C504.146 412.705 499.957 411.356 493.411 410.587C490.889 410.291 485.964 410.292 484.105 410.587ZM209.902 420.843C209.023 420.909 208.938 420.951 208.938 421.307C208.938 421.787 210.817 432.447 211.959 438.449C213.543 446.768 214.973 451.291 217.752 456.776C222.375 465.901 229.044 471.45 237.452 473.169C239.63 473.613 246.883 474.352 247.086 474.15C247.119 474.118 246.01 472.586 244.623 470.746C239.988 464.604 234.916 456.644 233.63 453.493C232.951 451.833 232.936 451.566 233.514 451.566C235.57 451.566 245.066 459.629 249.589 465.212C250.326 466.124 251.143 467.027 251.404 467.22C251.863 467.56 251.885 467.56 252.106 467.259C252.474 466.757 252.571 465.325 252.47 461.898C252.343 457.482 251.713 454.593 249.919 450.2C247.282 443.743 243.381 438.041 237.782 432.457C231.064 425.755 225.051 422.313 217.99 421.128C216.535 420.883 211.64 420.711 209.902 420.843ZM371.106 420.895C367.558 421.153 365.094 421.906 361.181 423.925C354.875 427.178 348.83 432.368 344.309 438.411C340.301 443.77 336.311 452.171 335.579 456.796C335.258 458.814 335.047 466.094 335.282 466.984C335.542 467.962 335.927 467.756 337.511 465.792C340.185 462.476 343.209 459.464 347.236 456.108C351.465 452.58 353.936 451.05 354.342 451.707C354.975 452.731 348.899 462.99 343.511 469.995C341.112 473.114 340.943 473.38 341.097 473.784C341.198 474.047 341.431 474.062 343.593 473.96C349.068 473.7 353.034 472.738 357.035 470.702C364.973 466.662 370.941 457.581 374.213 444.56C374.965 441.566 375.623 438.258 377.074 430.178C377.805 426.109 378.477 422.452 378.568 422.05C378.828 420.899 378.71 420.848 375.612 420.801C374.157 420.778 372.129 420.82 371.106 420.895ZM148.255 449.791C144.924 450.306 142.471 451.035 138.825 452.592C133.098 455.037 126.703 458.564 117.914 464.13C112.608 467.49 112.556 467.527 112.553 467.915C112.543 469.072 116.106 473.295 119.674 476.357C121.637 478.039 122.666 478.782 124.675 479.961C131.124 483.747 137.656 485.252 147.651 485.25C156.427 485.249 161.383 484.211 167.369 481.121C170.886 479.308 177.088 474.181 177.088 473.09C177.088 472.735 176.588 472.658 173.293 472.507C168.267 472.276 163.158 471.555 159.494 470.56C156.128 469.647 152.16 468.14 151.866 467.664C151.339 466.813 159.559 465.222 167.449 464.649C168.74 464.555 171.117 464.395 172.73 464.294C175.903 464.093 177.899 463.883 178.048 463.733C178.504 463.277 171.948 456.999 167.617 453.743C165.541 452.183 162.209 450.799 158.732 450.055C156.594 449.595 150.507 449.443 148.255 449.791ZM430.19 449.723C425.924 450.217 420.935 452.592 416.677 456.155C415.108 457.468 410.357 462.238 409.856 463.004C409.184 464.031 410.27 464.266 416.634 464.47C422.519 464.659 426.628 465.107 431.335 466.074C434.196 466.662 436.037 467.314 435.821 467.666C435.484 468.21 431.384 469.747 427.841 470.657C424.638 471.48 417.825 472.377 412.926 472.623C409.466 472.795 409.519 472.564 412.314 475.301C416.51 479.41 419.552 481.32 424.764 483.119C426.584 483.747 430.103 484.63 431.972 484.928C433.73 485.21 442.98 485.322 445.699 485.096C451.648 484.602 455.735 483.445 461.475 480.635C464.901 478.957 466.281 477.996 468.911 475.447C472.871 471.609 475.653 468.07 475.105 467.57C474.671 467.175 462.851 459.917 459.519 457.998C453.092 454.301 447.56 451.799 443.599 450.799C439.837 449.847 433.502 449.339 430.19 449.723ZM290.994 462.136C289.064 462.275 288.253 462.444 286.531 463.062C280.218 465.33 275.463 469.952 272.661 476.538C271.875 478.384 271.515 480.211 271.361 483.124C270.747 494.635 278.056 504.105 289.453 506.565C291.743 507.059 295.989 507.093 298.118 506.634C307.229 504.67 314.362 497.381 316.008 488.35C316.417 486.117 316.366 482.463 315.899 480.229C314.95 475.706 312.846 471.802 309.611 468.566C306.2 465.154 302.032 463.005 297.615 462.38C295.49 462.079 293.039 461.99 290.994 462.136ZM363.783 475.713C360.279 475.949 358.08 476.551 354.358 478.287C351.753 479.502 347.68 482.229 345.724 484.064C344.914 484.823 344.844 484.944 345.068 485.168C345.207 485.307 346.429 485.647 347.789 485.926C354.776 487.352 368.136 492.166 369.601 493.783C369.853 494.062 369.854 494.117 369.621 494.352C368.984 494.987 365.829 495.303 360.142 495.3C354.992 495.298 351.79 495.049 348.397 494.388C345.335 493.79 344.217 493.683 344.218 493.983C344.222 494.365 344.99 495.898 345.826 497.192C349.013 502.117 354.399 506.451 360.978 509.382C364.656 511.019 369.759 512.571 373.217 513.102C375.235 513.411 389.088 513.409 390.729 513.099C393.296 512.615 398.479 510.582 401.062 509.047C403.877 507.376 408.423 503.485 408.421 502.747C408.418 501.886 392.639 487.311 387.801 483.702C383.999 480.866 376.627 477.138 372.981 476.204C371.77 475.896 367.839 475.505 366.428 475.556C366.059 475.569 364.869 475.639 363.783 475.713ZM216.398 475.879C213.846 476.224 211.593 477.04 207.345 479.16C204.137 480.759 201.073 482.587 199.048 484.107C195.284 486.934 189.798 491.932 180.982 500.562L178.759 502.739L179.222 503.233C180.447 504.537 183.047 506.706 184.631 507.745C187.736 509.778 192.016 511.698 195.574 512.655C199.971 513.838 207.703 514.012 214.093 513.076C223.197 511.738 233.644 506.652 238.778 501.057C240.77 498.885 243.135 495.129 243.135 494.135C243.135 493.658 242.392 493.688 239.432 494.283C235.337 495.106 233.843 495.22 227.294 495.22C221.438 495.22 220.007 495.126 218.116 494.621C216.932 494.306 217.408 493.743 219.918 492.493C223.141 490.886 232.21 487.717 236.597 486.666C242.206 485.321 242.414 485.247 242.203 484.699C242.062 484.332 239.63 482.286 237.819 481.01C235.513 479.386 233.452 478.254 231.168 477.354C227.795 476.026 226.699 475.842 221.762 475.777C219.457 475.747 217.043 475.792 216.398 475.879Z" fill="white"/>
</svg>
